<svg version="1.1" id="Layer_1" xmlns="http://www.w3.org/2000/svg" xmlns:xlink="http://www.w3.org/1999/xlink" x="0px" y="0px"
	 width="100%" viewBox="0 0 500 500" enable-background="new 0 0 500 500" xml:space="preserve">
<path fill="#000000" opacity="1.000000" stroke="none" 
	d="
M0.999999,405.000000 
	C1.000000,270.391357 1.000000,135.782715 1.000000,1.087038 
	C167.666641,1.087038 334.333313,1.087038 501.000000,1.087038 
	C501.000000,35.428856 501.000000,69.747444 500.695923,104.822929 
	C495.998444,101.506302 491.218781,100.497673 485.432281,102.740189 
	C481.707153,104.183846 477.571014,104.567024 473.016144,105.556503 
	C476.137115,100.164619 478.915192,95.835693 481.211792,91.264862 
	C483.504120,86.702499 485.548004,81.982018 487.277802,77.178513 
	C489.536407,70.906578 486.802582,64.006844 481.321655,63.335670 
	C477.523071,62.870506 472.876678,63.449970 469.634064,65.330238 
	C454.766296,73.951454 438.868530,79.656998 422.380768,84.143677 
	C418.514954,85.195641 416.030090,84.930588 413.292786,81.957275 
	C411.138794,79.617561 408.195221,77.998932 405.580414,76.090126 
	C378.848907,56.576241 349.114288,50.440559 317.160736,58.208290 
	C291.261078,64.504349 270.300049,78.962013 254.558121,100.829567 
	C240.965729,119.711136 234.670563,140.833420 234.063232,163.836594 
	C233.975983,167.140747 234.738297,170.467316 235.130142,173.987396 
	C233.081512,173.987396 231.716476,174.208313 230.447021,173.953308 
	C217.486298,171.349762 204.457779,169.016693 191.608810,165.937759 
	C164.206070,159.371384 138.684464,148.109467 115.291779,132.528900 
	C102.895638,124.272514 91.141663,114.899361 79.903290,105.106003 
	C71.040131,97.382446 63.342209,88.308113 55.251698,79.716072 
	C49.325867,73.422905 46.159996,70.930336 39.865128,74.391342 
	C36.278435,76.363358 33.696392,80.967926 31.712435,84.915070 
	C21.206566,105.816696 18.596394,128.071960 22.118748,150.967758 
	C24.005060,163.229095 27.843935,175.003128 34.813961,185.553818 
	C36.645473,188.326218 37.806927,191.541260 39.276089,194.553040 
	C37.617149,194.774872 36.947834,194.355286 36.235661,194.029312 
	C27.300053,189.939255 19.904833,194.592331 20.045593,204.368423 
	C20.106819,208.620651 20.702850,212.863205 20.991644,217.114517 
	C22.091053,233.298889 28.363132,247.636688 36.689331,261.246887 
	C44.010117,273.213593 53.472809,283.205719 65.087807,291.536102 
	C56.840218,292.750671 52.156704,298.688721 55.207874,307.377411 
	C60.345596,322.007874 68.286972,335.110443 78.956917,346.352020 
	C91.659470,359.735107 106.926819,369.265961 124.503441,375.039673 
	C125.521111,375.373993 126.365944,376.234467 128.558624,377.693329 
	C117.234375,382.613922 107.413757,387.334229 97.264305,391.188568 
	C80.705139,397.477020 63.485130,401.334015 45.754330,401.878052 
	C35.029354,402.207123 24.257355,400.931396 13.527234,401.201416 
	C9.322292,401.307251 5.174058,403.666840 0.999999,405.000000 
z"/>
<path fill="#000000" opacity="1.000000" stroke="none" 
	d="
M501.000000,119.000000 
	C501.000000,246.275848 501.000000,373.551697 501.000000,500.913757 
	C334.333344,500.913757 167.666687,500.913757 1.000000,500.913757 
	C1.000000,473.577515 1.000000,446.256592 1.363318,418.469299 
	C13.420322,424.663147 24.854862,431.837769 36.857605,437.884552 
	C69.366219,454.261932 104.119438,463.431183 140.274246,465.679321 
	C162.605240,467.067902 185.130814,466.822571 207.511230,463.198639 
	C223.795609,460.561768 239.789612,457.143524 255.482727,452.157166 
	C273.434296,446.453217 290.554077,438.889954 306.932007,429.579407 
	C326.205780,418.622620 344.069946,405.720459 359.998627,390.334290 
	C368.525391,382.097839 376.385712,373.141235 384.210083,364.214508 
	C398.118561,348.346497 409.249725,330.543213 418.931305,311.883545 
	C427.355621,295.647064 434.104401,278.708893 439.516052,261.162170 
	C448.559875,231.838440 452.907135,201.907654 452.911652,171.304169 
	C452.912140,167.869095 454.282166,165.905655 456.788940,163.989136 
	C470.113007,153.802231 481.780396,141.954346 492.075195,128.708435 
	C494.763489,125.249527 498.009888,122.224365 501.000000,119.000000 
z"/>
<path fill="#FFFFFF" opacity="1.000000" stroke="none" 
	d="
M501.000000,118.535347 
	C498.009888,122.224365 494.763489,125.249527 492.075195,128.708435 
	C481.780396,141.954346 470.113007,153.802231 456.788940,163.989136 
	C454.282166,165.905655 452.912140,167.869095 452.911652,171.304169 
	C452.907135,201.907654 448.559875,231.838440 439.516052,261.162170 
	C434.104401,278.708893 427.355621,295.647064 418.931305,311.883545 
	C409.249725,330.543213 398.118561,348.346497 384.210083,364.214508 
	C376.385712,373.141235 368.525391,382.097839 359.998627,390.334290 
	C344.069946,405.720459 326.205780,418.622620 306.932007,429.579407 
	C290.554077,438.889954 273.434296,446.453217 255.482727,452.157166 
	C239.789612,457.143524 223.795609,460.561768 207.511230,463.198639 
	C185.130814,466.822571 162.605240,467.067902 140.274246,465.679321 
	C104.119438,463.431183 69.366219,454.261932 36.857605,437.884552 
	C24.854862,431.837769 13.420322,424.663147 1.363318,418.001465 
	C1.000000,413.975464 1.000000,409.950897 0.999999,405.463196 
	C5.174058,403.666840 9.322292,401.307251 13.527234,401.201416 
	C24.257355,400.931396 35.029354,402.207123 45.754330,401.878052 
	C63.485130,401.334015 80.705139,397.477020 97.264305,391.188568 
	C107.413757,387.334229 117.234375,382.613922 128.558624,377.693329 
	C126.365944,376.234467 125.521111,375.373993 124.503441,375.039673 
	C106.926819,369.265961 91.659470,359.735107 78.956917,346.352020 
	C68.286972,335.110443 60.345596,322.007874 55.207874,307.377411 
	C52.156704,298.688721 56.840218,292.750671 65.087807,291.536102 
	C53.472809,283.205719 44.010117,273.213593 36.689331,261.246887 
	C28.363132,247.636688 22.091053,233.298889 20.991644,217.114517 
	C20.702850,212.863205 20.106819,208.620651 20.045593,204.368423 
	C19.904833,194.592331 27.300053,189.939255 36.235661,194.029312 
	C36.947834,194.355286 37.617149,194.774872 39.276089,194.553040 
	C37.806927,191.541260 36.645473,188.326218 34.813961,185.553818 
	C27.843935,175.003128 24.005060,163.229095 22.118748,150.967758 
	C18.596394,128.071960 21.206566,105.816696 31.712435,84.915070 
	C33.696392,80.967926 36.278435,76.363358 39.865128,74.391342 
	C46.159996,70.930336 49.325867,73.422905 55.251698,79.716072 
	C63.342209,88.308113 71.040131,97.382446 79.903290,105.106003 
	C91.141663,114.899361 102.895638,124.272514 115.291779,132.528900 
	C138.684464,148.109467 164.206070,159.371384 191.608810,165.937759 
	C204.457779,169.016693 217.486298,171.349762 230.447021,173.953308 
	C231.716476,174.208313 233.081512,173.987396 235.130142,173.987396 
	C234.738297,170.467316 233.975983,167.140747 234.063232,163.836594 
	C234.670563,140.833420 240.965729,119.711136 254.558121,100.829567 
	C270.300049,78.962013 291.261078,64.504349 317.160736,58.208290 
	C349.114288,50.440559 378.848907,56.576241 405.580414,76.090126 
	C408.195221,77.998932 411.138794,79.617561 413.292786,81.957275 
	C416.030090,84.930588 418.514954,85.195641 422.380768,84.143677 
	C438.868530,79.656998 454.766296,73.951454 469.634064,65.330238 
	C472.876678,63.449970 477.523071,62.870506 481.321655,63.335670 
	C486.802582,64.006844 489.536407,70.906578 487.277802,77.178513 
	C485.548004,81.982018 483.504120,86.702499 481.211792,91.264862 
	C478.915192,95.835693 476.137115,100.164619 473.016144,105.556503 
	C477.571014,104.567024 481.707153,104.183846 485.432281,102.740189 
	C491.218781,100.497673 495.998444,101.506302 500.695923,105.289917 
	C501.000000,109.356903 501.000000,113.713799 501.000000,118.535347 
M42.000107,143.191467 
	C42.333778,145.100510 42.627838,147.017487 43.007336,148.917374 
	C46.299664,165.399826 52.781292,180.333023 64.902031,192.301193 
	C69.673531,197.012604 74.919441,201.259430 80.098244,205.537537 
	C84.346962,209.047348 86.424042,214.816452 84.808685,219.653397 
	C83.540077,223.452072 78.812508,226.196365 73.186562,225.940933 
	C69.457726,225.771622 65.718208,225.225433 62.048080,224.514481 
	C56.110317,223.364273 50.225674,221.939819 42.906448,220.318314 
	C46.048187,229.079239 47.819382,236.896790 51.477600,243.699615 
	C64.346779,267.631195 83.248367,284.289062 110.570686,290.035583 
	C116.127205,291.204254 118.645294,294.405273 119.050667,299.208588 
	C119.672920,306.581635 117.470085,309.379089 111.328758,310.828674 
	C102.171097,312.990265 92.740547,313.995758 83.426369,315.494690 
	C96.470711,339.362366 124.229607,359.563934 153.405914,360.044617 
	C158.926773,360.135559 164.201935,361.448761 166.668884,367.215637 
	C168.514832,371.530853 166.723877,377.231262 162.155731,380.230011 
	C151.806152,387.023926 141.560974,394.103149 130.646729,399.883148 
	C110.602852,410.498047 89.175629,417.250366 66.573189,420.036255 
	C62.794544,420.502014 59.065651,421.371368 53.880283,422.315155 
	C58.248371,424.322906 61.061390,425.865295 64.041832,426.945862 
	C84.977715,434.536041 106.170509,441.234863 128.538345,442.956085 
	C141.167343,443.927917 153.837906,444.809753 166.492905,444.855560 
	C177.157135,444.894135 187.923767,444.347504 198.468399,442.831299 
	C212.184158,440.859161 225.875504,438.267090 239.308212,434.875824 
	C262.804993,428.943787 284.695984,418.899323 305.098206,405.907288 
	C324.978485,393.247681 343.607941,378.920105 358.798401,360.651459 
	C366.702576,351.145569 374.770630,341.718445 381.926025,331.659210 
	C397.581116,309.650879 409.196350,285.541229 417.623840,259.868439 
	C423.788361,241.089401 428.381866,222.006622 430.026703,202.261337 
	C430.527893,196.244827 431.637726,190.267471 431.912018,184.246811 
	C432.199097,177.945602 432.418304,171.526947 431.522461,165.324966 
	C430.886871,160.924789 431.916748,157.441223 434.768219,154.909225 
	C441.706177,148.748566 449.134155,143.142899 456.239929,137.165268 
	C457.584045,136.034531 458.351501,134.218307 460.015594,131.803360 
	C451.635590,134.159866 444.905670,136.264114 438.066742,137.917252 
	C430.915161,139.645966 426.555634,137.525986 423.919891,131.635330 
	C421.734253,126.750473 423.270081,121.771721 428.104950,118.417892 
	C430.350006,116.860542 432.905853,115.700722 434.977112,113.953300 
	C440.271667,109.486641 445.373322,104.791306 450.552124,100.187431 
	C450.198730,99.682571 449.845337,99.177711 449.491943,98.672852 
	C447.797150,99.087761 446.091034,99.461555 444.409485,99.924530 
	C436.054749,102.224846 427.770569,104.829704 419.330811,106.753838 
	C414.621826,107.827415 410.018219,107.322624 406.337677,103.001869 
	C403.488892,99.657555 400.025421,96.692070 396.407837,94.171593 
	C377.498932,80.997162 356.973083,73.917183 333.451721,76.849892 
	C323.860413,78.045769 314.800537,80.441841 306.141785,84.436928 
	C288.709015,92.480247 275.513947,105.320198 266.104004,121.850273 
	C258.180054,135.769928 255.128006,151.131256 255.025208,167.069885 
	C254.975616,174.757202 259.003479,182.087219 256.338654,190.207260 
	C255.566574,192.559891 255.444946,195.049072 253.072113,195.299255 
	C247.358414,195.901672 241.507004,196.448395 235.827835,195.870590 
	C223.551025,194.621567 211.145508,193.540024 199.152222,190.810211 
	C164.878342,183.009094 132.859375,169.512314 103.555679,149.975372 
	C84.828362,137.489746 67.558228,123.197487 52.155544,106.714447 
	C50.960865,105.435959 49.322723,104.571877 48.023422,103.613129 
	C41.890003,116.400436 41.518246,129.263702 42.000107,143.191467 
z"/>
<path fill="#000000" opacity="1.000000" stroke="none" 
	d="
M42.000053,142.719330 
	C41.518246,129.263702 41.890003,116.400436 48.023422,103.613129 
	C49.322723,104.571877 50.960865,105.435959 52.155544,106.714447 
	C67.558228,123.197487 84.828362,137.489746 103.555679,149.975372 
	C132.859375,169.512314 164.878342,183.009094 199.152222,190.810211 
	C211.145508,193.540024 223.551025,194.621567 235.827835,195.870590 
	C241.507004,196.448395 247.358414,195.901672 253.072113,195.299255 
	C255.444946,195.049072 255.566574,192.559891 256.338654,190.207260 
	C259.003479,182.087219 254.975616,174.757202 255.025208,167.069885 
	C255.128006,151.131256 258.180054,135.769928 266.104004,121.850273 
	C275.513947,105.320198 288.709015,92.480247 306.141785,84.436928 
	C314.800537,80.441841 323.860413,78.045769 333.451721,76.849892 
	C356.973083,73.917183 377.498932,80.997162 396.407837,94.171593 
	C400.025421,96.692070 403.488892,99.657555 406.337677,103.001869 
	C410.018219,107.322624 414.621826,107.827415 419.330811,106.753838 
	C427.770569,104.829704 436.054749,102.224846 444.409485,99.924530 
	C446.091034,99.461555 447.797150,99.087761 449.491943,98.672852 
	C449.845337,99.177711 450.198730,99.682571 450.552124,100.187431 
	C445.373322,104.791306 440.271667,109.486641 434.977112,113.953300 
	C432.905853,115.700722 430.350006,116.860542 428.104950,118.417892 
	C423.270081,121.771721 421.734253,126.750473 423.919891,131.635330 
	C426.555634,137.525986 430.915161,139.645966 438.066742,137.917252 
	C444.905670,136.264114 451.635590,134.159866 460.015594,131.803360 
	C458.351501,134.218307 457.584045,136.034531 456.239929,137.165268 
	C449.134155,143.142899 441.706177,148.748566 434.768219,154.909225 
	C431.916748,157.441223 430.886871,160.924789 431.522461,165.324966 
	C432.418304,171.526947 432.199097,177.945602 431.912018,184.246811 
	C431.637726,190.267471 430.527893,196.244827 430.026703,202.261337 
	C428.381866,222.006622 423.788361,241.089401 417.623840,259.868439 
	C409.196350,285.541229 397.581116,309.650879 381.926025,331.659210 
	C374.770630,341.718445 366.702576,351.145569 358.798401,360.651459 
	C343.607941,378.920105 324.978485,393.247681 305.098206,405.907288 
	C284.695984,418.899323 262.804993,428.943787 239.308212,434.875824 
	C225.875504,438.267090 212.184158,440.859161 198.468399,442.831299 
	C187.923767,444.347504 177.157135,444.894135 166.492905,444.855560 
	C153.837906,444.809753 141.167343,443.927917 128.538345,442.956085 
	C106.170509,441.234863 84.977715,434.536041 64.041832,426.945862 
	C61.061390,425.865295 58.248371,424.322906 53.880283,422.315155 
	C59.065651,421.371368 62.794544,420.502014 66.573189,420.036255 
	C89.175629,417.250366 110.602852,410.498047 130.646729,399.883148 
	C141.560974,394.103149 151.806152,387.023926 162.155731,380.230011 
	C166.723877,377.231262 168.514832,371.530853 166.668884,367.215637 
	C164.201935,361.448761 158.926773,360.135559 153.405914,360.044617 
	C124.229607,359.563934 96.470711,339.362366 83.426239,315.493896 
	C92.740547,313.995758 102.171097,312.990265 111.328758,310.828674 
	C117.470085,309.379089 119.672920,306.581635 119.050667,299.208588 
	C118.645294,294.405273 116.127205,291.204254 110.570686,290.035583 
	C83.248367,284.289062 64.346779,267.631195 51.477600,243.699615 
	C47.819382,236.896790 46.048187,229.079239 42.906448,220.318314 
	C50.225674,221.939819 56.110317,223.364273 62.048080,224.514481 
	C65.718208,225.225433 69.457726,225.771622 73.186562,225.940933 
	C78.812508,226.196365 83.540077,223.452072 84.808685,219.653397 
	C86.424042,214.816452 84.346962,209.047348 80.098244,205.537537 
	C74.919441,201.259430 69.673531,197.012604 64.902031,192.301193 
	C52.781292,180.333023 46.299664,165.399826 43.007336,148.917374 
	C42.627838,147.017487 42.333778,145.100510 42.000053,142.719330 
z"/>
</svg>